#!OML:ASF F:\VICON\USERDATA\INSTALL\rory3\rory3.ASF
:FULLY-SPECIFIED
:DEGREES
81
root 1.3547680843811343 17.85200519049257 48.82647902483381 -3.4709803081003843 -1.4264611879032651 -1.5741538371988217
lfemur 6.216966991421444 -1.7924208248431481 -18.399759688727848
ltibia 46.868755191883594
lfoot -5.6214184607813 -1.523614437896195
ltoes -8.714445967143043
rfemur -17.125692762517122 1.1088874935690745 26.41874916306306
rtibia 28.673637457996335
rfoot -12.15544036830321 -10.690019353307942
rtoes 1.8255562894667658
lowerback nan -1.5934614891492482 -1.0213010594589347
upperback -0.16554445509760493 -2.1852374856707355 2.3131474437590986
thorax -5.909993955066233 -1.0910678489130108 3.6849708419594442
lowerneck -16.777042664805464 -3.0657362115248743 -1.9456350632479846
upperneck 22.025503957842382 -3.911582541946353 0.8170787579938988
head 9.846507734268409 -1.9055713598364732 0.13534384149356044
lclavicle -2.567770728654737e-15 -2.7655216395284865e-15
lhumerus -29.521723737841246 2.0141780078926557 82.48321399662147
lradius 21.615555910785027
lwrist 10.641538849265608
lhand -29.729267089595456 18.449954195782034
lfingers nan
lthumb -2.9108093847888425 48.551005981807656
rclavicle -2.5459656748832843e-15 -2.754824068899512e-15
rhumerus -34.160002299750225 -22.87627011644663 -75.03143977766955
rradius 31.05121661078826
rwrist 2.849800871923553
rhand -18.044562037781116 nan
rfingers nan
rthumb 8.82897971028605 -7.361740805792157
82
root 1.3565804697070987 17.85198837344435 48.178473102882805 -3.427848504749057 -1.5376791765066538 -3.858338593538074
lfemur 2.591486754170898 -1.0000758244462573 -14.939863846575411
ltibia 51.58735510538695
lfoot -6.667771565968197 -1.3915034877206274
ltoes -9.673559729307268
rfemur -14.699084873172172 2.0509568843677766 28.924377194629702
rtibia 28.455884944256557
rfoot -12.897661710390867 -11.160449431750878
rtoes 0.4267248223147868
lowerback nan -1.301218790213262 0.7917330004767984
upperback -0.18077257105821565 -1.4708764421244191 2.6175119268611438
thorax -6.055827849160071 -0.7770633829978696 3.145280374169301
lowerneck -16.866656077225432 -3.1272226534201297 -1.7980485717014874
upperneck 21.915724549257057 -4.022076371128129 0.7984715504639643
head 9.817668951209306 -1.947618859466947 0.08981657278844171
lclavicle -2.5673539305056435e-15 -2.7663254717762704e-15
lhumerus -30.233059271426526 2.761406705890579 82.62729836380191
lradius 21.648570416515042
lwrist 10.834886711805467
lhand -29.88743988673355 18.418781405459516
lfingers nan
lthumb -3.081313380936478 48.44219964911685
rclavicle -2.5452932224023006e-15 -2.755269768537005e-15
rhumerus -33.7902531173882 -22.88723607817694 -74.69430568692539
rradius 31.087871296667554
rwrist 2.831964917915858
rhand -18.04078214507071 nan
rfingers nan
rthumb 8.87819506602235 -7.245856321016682
83
root 1.3447142217503634 17.850993861875324 47.559379385302506 -3.388093490508677 -1.503942364032195 -5.861454524628575
lfemur -2.080017424484457 -0.3097477960423918 -12.065529404723154
ltibia 56.23621506629807
lfoot -7.334022930910547 -0.7989574594039741
ltoes -10.050557553520665
rfemur -12.218891263910976 2.9120819973239422 30.880346859717687
rtibia 28.227635636018427
rfoot -13.167085101238566 -11.390512679116744
rtoes -0.8976921997092631
lowerback nan -0.9299357009982036 2.469547093065528
upperback -0.1937815122292513 -0.6283476955325633 2.8260122587303393
thorax -6.230912239811651 -0.3853850892566698 2.420687777445422
lowerneck -16.97888644432856 -3.211766457058686 -1.6130410480375386
upperneck 21.79350363071987 -4.17946581397808 0.7941630633959248
head 9.78816513766999 -2.007094970486579 0.03767061123468507
lclavicle -2.567956117796356e-15 -2.7686320295243664e-15
lhumerus -30.914963171409386 3.4288525129129868 82.72777473638985
lradius 21.843832003404394
lwrist 11.122494366774266
lhand -29.957096301271694 18.435327559427122
lfingers nan
lthumb -3.16476170219159 48.40344360589637
rclavicle -2.5439639614671765e-15 -2.7559617102082313e-15
rhumerus -33.22456361554161 -22.759555481636802 -74.46537276555713
rradius 31.09601780253353
rwrist 2.784753461437318
rhand -18.048213376007737 nan
rfingers nan
rthumb 8.8059035382633 -7.368730596160845
84
root 1.3429492084853982 17.85793138547869 47.811881085351416 -3.3145606267826353 -1.2999273299619534 -6.631502478240912
lfemur -6.764326560707941 0.14290354837965458 -10.885702460024238
ltibia 59.66845780077806
lfoot -7.929634256846578 -0.6521341715225839
ltoes -11.285908269363407
rfemur -9.853594817501278 3.2262191365804442 31.6459059555868
rtibia 28.096249388628536
rfoot -12.768751678032928 -11.309665017635712
rtoes -1.8882688675598596
lowerback nan -0.6038067173684847 3.305616300943049
upperback -0.18907069375261298 -0.02644774701285274 2.816713746311158
thorax -6.317247057951538 -0.07910108864988089 1.8275362569296003
lowerneck -17.0844690320983 -3.324771570429795 -1.4352140542949403
upperneck 21.642754783172784 -4.397851584855475 0.8148232244288833
head 9.744066518180617 -2.0888443599373017 -0.015319296293591161
lclavicle -2.568954726876401e-15 -2.7718682767664845e-15
lhumerus -31.577250403976624 3.8955090900090164 82.75245870567846
lradius 22.184110838795252
lwrist 11.466537805872058
lhand -29.952709097265732 18.47102633554884
lfingers nan
lthumb -3.2041384094660454 48.35332552719978
rclavicle -2.5406243586027718e-15 -2.755928221932649e-15
rhumerus -32.590703789014974 -22.549358403599356 -74.36943116877666
rradius 31.098457275554534
rwrist 2.716449342556852
rhand -18.03100890116918 nan
rfingers nan
rthumb 8.871137104839743 -7.188180107250966
85
root 1.358854095403567 17.875694981338302 48.148691475506915 -3.3370617301928065 -0.86967630222182 -6.6962787537184205
lfemur -10.89662799521948 0.26826563001987 -10.949493971203475
ltibia 61.22191527014373
lfoot -7.519032625557821 -0.13935290201501704
ltoes -12.835973214064298
rfemur -7.569715447865842 3.151629847598489 31.863093945188503
rtibia 27.99848868952764
rfoot -11.596118493865411 -10.953164341549499
rtoes -2.3578055464799252
lowerback nan -0.3036212200194034 3.7143827366700917
upperback -0.16884869861663704 0.49516035367664335 2.7400542972413615
thorax -6.30580381532156 0.18333547632864133 1.271452231356895
lowerneck -17.106564303329815 -3.466197935540987 -1.3280980320552334
upperneck 21.493920795108075 -4.670386085937754 0.8714591307063931
head 9.691194573440477 -2.190350741155704 -0.05932841346133297
lclavicle -2.5687635709442394e-15 -2.774053514521195e-15
lhumerus -32.12262110426102 4.208963313824209 82.71871587137642
lradius 22.63299572812473
lwrist 11.78373301318839
lhand -29.89215386612354 18.525181707462803
lfingers nan
lthumb -3.1920563416654204 48.30788005943934
rclavicle -2.5368697038054333e-15 -2.75539385415721e-15
rhumerus -31.947877395023344 -22.27458755211228 -74.39236441798226
rradius 31.112687725028778
rwrist 2.642680569921904
rhand -18.02837430013448 nan
rfingers nan
rthumb 8.804572574954035 -7.276149952045012
86
root 1.37114946765508 17.88725571249236 47.91237018075696 -3.532702949094076 -0.34321775176964314 -7.004404066810585
lfemur -14.536887856989757 0.07530676888451016 -11.27671967036825
ltibia 60.890227970703364
lfoot -7.79008483845245 0.0553030292264296
ltoes -14.049161412277853
rfemur -5.437503177974669 3.1045307478309274 32.29433482911163
rtibia 27.886478664545223
rfoot -9.763439471293653 -10.471630337840633
rtoes -2.2205383952904985
lowerback nan 0.014433348744816804 4.266945341422255
upperback -0.1801920587637605 1.0588969888382809 2.665140313742124
thorax -6.268199006768311 0.45271772776485464 0.5791948890533688
lowerneck -16.99231576961034 -3.616132652186076 -1.306024094814243
upperneck 21.392578285898157 -4.960598964761962 0.9473537410199931
head 9.64370419888799 -2.2966317105036773 -0.08930249089654388
lclavicle -2.566987528451935e-15 -2.77519972163349e-15
lhumerus -32.478394851488034 4.394940503505396 82.65484396707944
lradius 23.13934262115494
lwrist 11.999272963657699
lhand -29.817608466562852 18.569156889139226
lfingers nan
lthumb -3.158565813711759 48.32052172953996
rclavicle -2.534321076376194e-15 -2.75550155848622e-15
rhumerus -31.331258491163794 -21.945086992330488 -74.52326738846104
rradius 31.142128321056067
rwrist 2.573700308149405
rhand -18.00952376368155 nan
rfingers nan
rthumb 8.877496664762194 -7.069649951376718
87
root 1.3779042244990263 17.89732255447478 47.97610927745239 -3.54126661440049 0.18537108346275577 -7.739581024388601
lfemur -17.55516116698335 -0.31589285642953135 -11.40966951785039
ltibia 58.94237381856722
lfoot -8.32475116256132 -0.24142641992726377
ltoes -14.263852779736503
rfemur -4.021726440319421 3.2553275155187427 32.918827719547004
rtibia 28.29264684327349
rfoot -7.4388267912399595 -10.030620193845326
rtoes -1.4355857277168322
lowerback nan 0.3041870146199691 5.092426716417224
upperback -0.23227263395022735 1.5943146799961063 2.5806265583068164
thorax -6.238006279761921 0.699927917154304 -0.16888935444133635
lowerneck -16.77471275227121 -3.749872211535655 -1.3420001379571551
upperneck 21.39355191638209 -5.217617707851883 1.0246752565751571
head 9.627612132473189 -2.3884216578865 -0.10470545877652218
lclavicle -2.5632722819508833e-15 -2.7756212635628036e-15
lhumerus -32.58091979491886 4.5427435687413995 82.59830681132803
lradius 23.644226042000284
lwrist 12.063884105861035
lhand -29.760955107111677 18.54732720588606
lfingers nan
lthumb -3.1138657579414737 48.3310490081879
rclavicle -2.5335142792082413e-15 -2.756936243228705e-15
rhumerus -30.755889917646243 -21.579315825009495 -74.74404521849935
rradius 31.18776421850485
rwrist 2.507244005628662
rhand -18.009791217249717 nan
rfingers nan
rthumb 8.800712552689125 -7.188063797559169
88
root 1.383890154302668 17.91033808050884 48.23269655146982 -3.521844699997525 0.5072999896322883 -8.148633632448636
lfemur -19.335407620436598 -0.6879907959955693 -11.677772121968161
ltibia 55.36195803963554
lfoot -8.158332556914013 1.0867227872138048
ltoes -15.814377249207624
rfemur -3.265608741563616 3.484118519389474 33.242786212194126
rtibia 29.485513901329917
rfoot -4.869949666101515 -9.766736332635638
rtoes 0.07316206771393707
lowerback nan 0.543834871123791 5.570893730204992
upperback -0.2817440021570186 1.9378753722615985 2.4103923511340186
thorax -6.171607072715654 0.8628144959066335 -0.7019477697720904
lowerneck -16.513220768439602 -3.8526621709964033 -1.4046192816095
upperneck 21.479970640981474 -5.415864415164273 1.10612694500183
head 9.643416932870394 -2.4567830323260353 -0.10439657360862478
lclavicle -2.557895107014265e-15 -2.7750945176168933e-15
lhumerus -32.46934064380961 4.619589035289433 82.5710889668979
lradius 24.12389171463196
lwrist 11.965315909151112
lhand -29.73516322881187 18.464222518558667
lfingers nan
lthumb -3.090740135321354 48.327227402573115
rclavicle -2.5330851929335023e-15 -2.758617652859778e-15
rhumerus -30.248160053437257 -21.195851443325505 -74.9992836976099
rradius 31.261723765381625
rwrist 2.437854515689968
rhand -18.002112617752317 nan
rfingers nan
rthumb 8.858061269771632 -7.032280191465054
